<svg width="125" height="125" viewBox="0 0 125 125" fill="none" xmlns="http://www.w3.org/2000/svg">
<path d="M71 90.5H39C34.582 90.5 31 94.082 31 98.5V122.5H79V98.5C79 94.082 75.418 90.5 71 90.5Z" fill="#D9D9D9"/>
<path d="M43 42.5C39.692 42.5 37 39.808 37 36.5C37 33.192 39.692 30.5 43 30.5C46.308 30.5 49 33.192 49 36.5C49 39.808 46.308 42.5 43 42.5ZM43 34.5C41.898 34.5 41 35.398 41 36.5C41 37.602 41.898 38.5 43 38.5C44.102 38.5 45 37.602 45 36.5C45 35.398 44.102 34.5 43 34.5Z" fill="#8013EE"/>
<path d="M67 42.5C63.692 42.5 61 39.808 61 36.5C61 33.192 63.692 30.5 67 30.5C70.308 30.5 73 33.192 73 36.5C73 39.808 70.308 42.5 67 42.5ZM67 34.5C65.898 34.5 65 35.398 65 36.5C65 37.602 65.898 38.5 67 38.5C68.102 38.5 69 37.602 69 36.5C69 35.398 68.102 34.5 67 34.5Z" fill="#8013EE"/>
<path d="M90.2079 80.794L72.9999 75.058V72.5H68.9999V77.942L84.9999 83.276V100.5C84.9999 100.562 85.0179 100.618 85.0179 100.68H85.0079L86.8099 120.5H23.1899L24.9919 100.68H24.9819C24.9819 100.618 24.9999 100.562 24.9999 100.5V83.276L40.9999 77.942V72.5H36.9999V75.058L19.7919 80.794C12.0419 83.378 6.39194 89.99 5.04794 98.048L0.637939 124.5H109.36L104.95 98.048C103.61 89.99 97.9599 83.378 90.2079 80.794ZM92.9999 86.558V100.5H96.9999V90.048C99.0519 92.476 100.464 95.444 101.006 98.708L102.306 106.5H94.9999C91.9819 106.5 89.5019 104.252 89.0859 101.348L88.9999 100.406V84.614C90.4319 85.096 91.7659 85.762 92.9999 86.558ZM12.9999 90.048V100.5H16.9999V86.558C18.2339 85.762 19.5679 85.096 20.9999 84.614V100.406L20.9139 101.348C20.4979 104.252 18.0179 106.5 14.9999 106.5H7.69394L8.99194 98.708C9.53594 95.444 10.9479 92.474 12.9999 90.048ZM7.02794 110.5H14.9999C16.9179 110.5 18.6959 109.93 20.2199 108.99L19.1739 120.5H5.36194L7.02794 110.5ZM90.8259 120.5L89.7799 108.99C91.3039 109.93 93.0819 110.5 94.9999 110.5H102.972L104.638 120.5H90.8259Z" fill="#202123"/>
<path d="M81 30.702V30.5C81 16.164 69.336 4.5 55 4.5C40.664 4.5 29 16.164 29 30.5V30.702C24.442 31.632 21 35.67 21 40.5C21 45.364 24.494 49.418 29.102 50.308C29.578 55.394 31.786 60.114 35.444 63.772L43.244 71.572C45.132 73.46 47.642 74.5 50.314 74.5H59.688C62.358 74.5 64.87 73.46 66.758 71.572L74.558 63.772C78.216 60.114 80.422 55.394 80.9 50.308C85.506 49.418 89 45.364 89 40.5C89 35.672 85.558 31.632 81 30.702ZM57 8.602V18.5C57 19.602 56.102 20.5 55 20.5C53.898 20.5 53 19.602 53 18.5V8.602C53.66 8.542 54.324 8.5 55 8.5C55.676 8.5 56.34 8.542 57 8.602ZM25 40.5C25 37.896 26.678 35.696 29 34.868V46.13C26.678 45.304 25 43.104 25 40.5ZM77 48.216C77 53.024 75.128 57.544 71.728 60.944L63.928 68.744C62.812 69.86 61.266 70.5 59.686 70.5H50.312C48.732 70.5 47.188 69.86 46.07 68.744L38.27 60.944C34.87 57.544 32.998 53.024 32.998 48.216V30.5C32.998 23.684 36.116 17.582 40.998 13.542V24.5H44.998V10.928C46.266 10.278 47.602 9.748 48.998 9.352V18.5C48.998 21.808 51.69 24.5 54.998 24.5C58.306 24.5 60.998 21.808 60.998 18.5V9.352C62.394 9.748 63.73 10.278 64.998 10.928V24.5H68.998V13.542C73.88 17.58 76.998 23.682 76.998 30.5L77 48.216ZM81 46.132V34.87C83.322 35.698 85 37.898 85 40.502C85 43.106 83.322 45.304 81 46.132Z" fill="#202123"/>
<path d="M43 60.5H67V48.5H43V60.5ZM47 52.5H63V56.5H47V52.5Z" fill="#202123"/>
<path d="M81 116.5V98.5C81 92.986 76.514 88.5 71 88.5H39C33.486 88.5 29 92.986 29 98.5V116.5H33V98.5C33 95.192 35.692 92.5 39 92.5H71C74.308 92.5 77 95.192 77 98.5V116.5H81Z" fill="#202123"/>
<path d="M37 106.5C37 110.912 40.588 114.5 45 114.5C49.412 114.5 53 110.912 53 106.5C53 102.088 49.412 98.5 45 98.5C40.588 98.5 37 102.088 37 106.5ZM49 106.5C49 108.706 47.206 110.5 45 110.5C42.794 110.5 41 108.706 41 106.5C41 104.294 42.794 102.5 45 102.5C47.206 102.5 49 104.294 49 106.5Z" fill="#202123"/>
<path d="M73 98.5H57V102.5H73V98.5Z" fill="#202123"/>
<path d="M73 110.5H57V114.5H73V110.5Z" fill="#202123"/>
<path d="M97 56.5H101V52.5H105V56.5H109V40.5H97V56.5ZM105 44.5V48.5H101V44.5H105Z" fill="#202123"/>
<path d="M117 40.5H113V56.5H117V40.5Z" fill="#202123"/>
<path d="M119 32.5H109V20.132C111.322 19.304 113 17.104 113 14.5C113 11.192 110.308 8.5 107 8.5C103.692 8.5 101 11.192 101 14.5C101 17.104 102.678 19.304 105 20.132V32.5H95C91.692 32.5 89 35.192 89 38.5V40.5V58.5C89 61.808 91.692 64.5 95 64.5H119C122.308 64.5 125 61.808 125 58.5V38.5C125 35.192 122.308 32.5 119 32.5ZM107 12.5C108.102 12.5 109 13.398 109 14.5C109 15.602 108.102 16.5 107 16.5C105.898 16.5 105 15.602 105 14.5C105 13.398 105.898 12.5 107 12.5ZM121 58.5C121 59.602 120.102 60.5 119 60.5H95C93.898 60.5 93 59.602 93 58.5V38.5C93 37.398 93.898 36.5 95 36.5H119C120.102 36.5 121 37.398 121 38.5V58.5Z" fill="#202123"/>
<path d="M114.002 26.612L111.996 23.152C115.084 21.364 117 18.048 117 14.5C117 8.986 112.514 4.5 107 4.5C101.486 4.5 97 8.986 97 14.5C97 18.048 98.916 21.364 102.002 23.152L99.996 26.612C95.682 24.112 93 19.47 93 14.5C93 6.78 99.28 0.5 107 0.5C114.72 0.5 121 6.78 121 14.5C121 19.47 118.318 24.112 114.002 26.612Z" fill="#8013EE"/>
</svg>
